<?xml version="1.0" standalone="no"?>
<!DOCTYPE svg PUBLIC "-//W3C//DTD SVG 20010904//EN"
 "http://www.w3.org/TR/2001/REC-SVG-20010904/DTD/svg10.dtd">
<svg version="1.0" xmlns="http://www.w3.org/2000/svg"
 width="300.000000pt" height="300.000000pt" viewBox="0 0 300.000000 300.000000"
 preserveAspectRatio="xMidYMid meet">
<metadata>
Created by potrace 1.11, written by Peter Selinger 2001-2013
</metadata>
<g transform="translate(0.000000,300.000000) scale(0.100000,-0.100000)"
fill="#000000" stroke="none">
<path d="M370 1500 l0 -950 255 0 255 0 0 950 0 950 -255 0 -255 0 0 -950z"/>
<path d="M1130 1500 l0 -950 408 0 c452 0 536 7 695 60 247 83 434 270 517
517 93 280 75 614 -47 858 -126 253 -372 415 -688 454 -52 6 -259 11 -487 11
l-398 0 0 -950z m901 491 c118 -37 187 -107 229 -230 29 -86 42 -239 30 -358
-17 -183 -65 -284 -164 -351 -79 -53 -140 -65 -321 -66 l-160 -1 -3 505 c-1
278 0 511 3 519 9 23 300 9 386 -18z"/>
</g>
</svg>
